<svg fill="currentColor" xmlns="http://www.w3.org/2000/svg" viewBox="0 0 512 512">
	<g transform="translate(-46 44)">
		<g transform="rotate(45 256 256)">
			<g transform="scale(0.78)">
      <g>
      	<g>
      		<path d="M291.847,6.991L286.854,0h-61.706l-4.994,6.991c-25.983,36.377-35.78,69.458-29.117,98.328
      			c3.247,14.073,9.813,23.825,14.877,29.621V512h100.174V134.941c5.064-5.797,11.629-15.549,14.877-29.621
      			C327.626,76.45,317.83,43.368,291.847,6.991z M272.696,478.609h-33.391v-33.391h33.391V478.609z M256,384
      			c-9.22,0-16.696-7.475-16.696-16.696c0-9.22,7.475-16.696,16.696-16.696c9.22,0,16.696,7.475,16.696,16.696
      			C272.696,376.525,265.221,384,256,384z M256,328.348c-9.22,0-16.696-7.475-16.696-16.696s7.475-16.696,16.696-16.696
      			c9.22,0,16.696,7.475,16.696,16.696S265.221,328.348,256,328.348z M256,272.696c-9.22,0-16.696-7.475-16.696-16.696
      			c0-9.22,7.475-16.696,16.696-16.696c9.22,0,16.696,7.475,16.696,16.696C272.696,265.22,265.221,272.696,256,272.696z M256,217.043
      			c-9.22,0-16.696-7.475-16.696-16.696s7.475-16.696,16.696-16.696c9.22,0,16.696,7.475,16.696,16.696S265.221,217.043,256,217.043z
      			 M222.594,83.478c0.722-10.078,4.18-21.301,10.253-33.391h46.325c6.712,13.378,9.539,24.432,10.163,33.391H222.594z"/>
      	</g>
      </g>
			</g>
    </g>
  </g>
  <path fill="none" stroke="currentColor" stroke-width="38.4" stroke-linecap="round" stroke-linejoin="round" d="M403.2,224l106.667,106.667"/>
  <path fill="none" stroke="currentColor" stroke-width="38.4" stroke-linecap="round" stroke-linejoin="round" d="M509.867,224l-106.667,106.667"/>
</svg>
