<svg viewBox="0 0 24 24" fill="none" xmlns="http://www.w3.org/2000/svg">
  <g transform="translate(-0.8 4.25) scale(0.56)">
    <path fill-rule="evenodd" clip-rule="evenodd" d="M22 21C23.1046 21 24 20.1046 24 19V5C24 3.89543 23.1046 3 22 3H3C1.89543 3 1 3.89543 1 5V19C1 20.1046 1.89543 21 3 21H22ZM11 5H8.98486V13H7.98511V19H12V13H11V5ZM18.0151 19H22V5H19.0151V13H18.0151V19ZM17.0151 13H16.0151V5H14V13H13V19H17.0151V13ZM6.98511 19V13H5.98486V5H3L3 19H6.98511Z" fill="currentColor"/>
  </g>
  <path d="M15.08 14C15.92 12.8 15.92 11.2 15.08 10" stroke="currentColor" stroke-width="1.8" stroke-linecap="round" stroke-linejoin="round"/>
  <path d="M16.58 16.5C19.07 14.31 19.3 10.52 17.11 8.03C16.94 7.84 16.77 7.66 16.58 7.5" stroke="currentColor" stroke-width="1.8" stroke-linecap="round" stroke-linejoin="round"/>
</svg>