<svg xmlns="http://www.w3.org/2000/svg" viewBox="0 0 24 24" fill="none" stroke="currentColor" stroke-width="1.3" stroke-linecap="round" stroke-linejoin="round">
  <g transform="scale(0.03)">
    <path vector-effect="non-scaling-stroke" d="M491.57,346.96c28.51-19.53,42.76-51.85,42.76-96.96,0-67.67-82.92-183.33-157.7-183.33h-191.33c-73.19,0-117.64,64.18-117.64,115.67v217.52c0,27.61,22.39,50,50,50h.15c27.53,0,49.85-22.32,49.85-49.85"/>
    <path vector-effect="non-scaling-stroke" d="M467.98,309.25v307.32c0,27.59-22.37,49.96-49.96,49.96-.05,0-.09,0-.14,0-27.69-.08-50.1-22.55-50.1-50.24v-226.16"/>
    <path vector-effect="non-scaling-stroke" d="M367.78,399.87v283.21c0,27.76-22.5,50.26-50.26,50.26s-50.26-22.5-50.26-50.26v-283.21"/>
    <path vector-effect="non-scaling-stroke" d="M267.67,404.74v45.21c0,27.61-22.38,50-50,50s-50-22.39-50-50v-50"/>
  </g>
  <path d="M18.12,11.25l3.5,3.5"/>
  <path d="M21.62,11.25l-3.5,3.5"/>
</svg>