<?xml version="1.0" encoding="UTF-8"?>
<svg id="Layer_1" xmlns="http://www.w3.org/2000/svg" version="1.1" viewBox="0 0 24 24" fill="none"
  stroke="currentColor" stroke-width="1.8" stroke-linecap="round" stroke-linejoin="round">
  <!-- Generator: Adobe Illustrator 29.8.4, SVG Export Plug-In . SVG Version: 2.1.1 Build 6)  -->
  <path d="M7.58,2h0c1.66,0,3,1.34,3,3v6c0,1.66-1.34,3-3,3h0c-1.66,0-3-1.34-3-3v-6c0-1.66,1.34-3,3-3Z"/>
  <path d="M2.58,11v1c0,2.76,2.24,5,5,5s5-2.24,5-5v-1"/>
  <path d="M7.58,17v4"/>
  <path d="M4.58,21h6"/>
  <path d="M15.08,14c.84-1.2.84-2.8,0-4"/>
  <path d="M16.58,16.5c2.49-2.19,2.72-5.98.53-8.47-.17-.19-.34-.37-.53-.53"/>
</svg>