<svg fill="currentColor" xmlns="http://www.w3.org/2000/svg" viewBox="0 0 512 512">
  <g transform="translate(-30 56)">
    <g transform="scale(0.78)">
      <g>
      	<g>
      		<path d="M193.888,257.068L12.555,424.308c-0.743,0.69-1.528,1.469-2.227,2.227c-14.597,15.827-13.6,40.491,2.227,55.088
      			s40.491,13.6,55.087-2.227L233.29,299.79L193.888,257.068z"/>
      	</g>
      </g>
      <g>
      	<g>
      		<path d="M459.454,32.497c-16.597-16.596-43.506-16.597-60.103,0c-11.979,11.979-15.307,29.327-9.996,44.295L280.623,177.074
      			l35.58,32.815l98.955-107.293c14.968,5.312,32.316,1.982,44.295-9.995C476.051,76.003,476.051,49.093,459.454,32.497z"/>
      	</g>
      </g>
      <g>
      	<g>
      		<path d="M499.446,424.308L122.645,76.792c5.312-14.968,1.982-32.316-9.995-44.295c-16.597-16.597-43.506-16.597-60.103,0
      			c-16.597,16.597-16.597,43.507,0,60.103c11.979,11.979,29.327,15.307,44.295,9.995l347.518,376.801
      			c15.557,16.761,41.905,16.714,57.315,0C516.27,463.569,515.273,438.906,499.446,424.308z"/>
      	</g>
      </g>
    </g>
  </g>
  <path fill="none" stroke="currentColor" stroke-width="38.4" stroke-linecap="round" stroke-linejoin="round" d="M372.907,298.667c17.92,-25.6 17.92,-59.733 0,-85.333"/>
</svg>
