<svg xmlns="http://www.w3.org/2000/svg" viewBox="0 0 24 24" fill="none" stroke="currentColor" stroke-width="1.8" stroke-linecap="round" stroke-linejoin="round">
  <path d="M14.5 4.5l5 5" />
  <path d="M16.5 2.5l5 5" />
  <path d="M11 8l5 5" />
  <path d="M9.2 9.2c-1.6 1.6-1.6 4.2 0 5.8s4.2 1.6 5.8 0l-5.8-5.8z" />
  <path d="M8.4 15.6l-3.2 3.2c-.9.9-.9 2.3 0 3.2.9.9 2.3.9 3.2 0l3.2-3.2" />
  <path d="M16.5 14a3.5 3.5 0 0 0 0-4" />
  <path d="M19 16.5a6 6 0 0 0 0-9" />
  <path d="M21.5 19a9 9 0 0 0 0-14" />
</svg>
