<?xml version="1.0" encoding="UTF-8"?>
<svg id="Layer_1" xmlns="http://www.w3.org/2000/svg" version="1.1" viewBox="0 0 24 24" fill="none"
  stroke="currentColor" stroke-width="1.8" stroke-linecap="round" stroke-linejoin="round">
  <!-- Generator: Adobe Illustrator 29.8.4, SVG Export Plug-In . SVG Version: 2.1.1 Build 6)  -->
  <path d="M17.19,14c.84-1.2.84-2.8,0-4"/>
  <path d="M18.18,16.5c2.49-2.19,2.72-5.98.53-8.47-.17-.19-.34-.37-.53-.53"/>
  <path stroke-width="2.0" d="M14.25,11.34c-.03-.09-.08.09-.09.1-.03.1-.04.2-.06.29-.17.5-.38,1-.58,1.49-.36.75-.79,1.48-1.23,2.22-.04.07-.1.19-.11.27-.82,1.26-1.82,2.54-2.93,3.55-.8.73-1.03,1.14-1.99.37-4.15-3.35-9.96-13.98-1.23-15.48,5.05-.87,10.12,1.2,8.24,7.19Z"/>
</svg>