<svg id="_x32_" xmlns="http://www.w3.org/2000/svg" viewBox="0 0 512 512">
  <g transform="translate(-30 56)">
    <g transform="scale(0.78)">
      <style type="text/css">
      	.st0{fill: currentColor;}
      </style>
      <g>
      	<path class="st0" d="M176.014,0l-2.823,0.01C89.091,1.164,20.78,63.557,15.904,118.564c-3.125,35.072,4.693,63.941,22.568,83.494
      		c16.307,17.803,39.765,26.836,69.727,26.836c31.095,0,61.603-29.77,61.603-60.106c0-30.803-25.076-55.869-55.888-55.869
      		c-16.569,0-27.575,7.323-34.858,12.179c-2.853,1.892-5.796,3.854-7.121,3.854c-0.446,0-1.477-1.184-2.458-5.635
      		c-3.399-15.335,1.902-33.644,14.212-48.98c10.399-12.978,34.858-34.726,81.876-34.726c65.67,0,101.833,52.894,101.833,148.952
      		c0,192.852-165.703,271.845-216.483,291.459c-10.398,4.016-13.778,12.716-12.492,19.553C39.828,507.002,45.947,512,53.686,512
      		c2.448,0,5.037-0.496,7.657-1.477l5.807-2.165C262.916,435.82,362.19,326.247,362.19,182.648C362.19,57.164,265.688,0,176.014,0z"
      		/>
		<path class="st0" d="M424.486,126.84c22.771,0,41.282-18.522,41.282-41.292c0-22.76-18.512-41.271-41.282-41.271
			c-22.759,0-41.281,18.511-41.281,41.271C383.205,108.318,401.726,126.84,424.486,126.84z"/>
		<path class="st0" d="M424.486,211.365c-22.759,0-41.281,18.522-41.281,41.282c0,22.77,18.522,41.281,41.281,41.281
			c22.771,0,41.282-18.511,41.282-41.281C465.768,229.887,447.256,211.365,424.486,211.365z"/>
      </g>
    </g>
  </g>
  <path fill="none" stroke="currentColor" stroke-width="38.4" stroke-linecap="round" stroke-linejoin="round" d="M372.907,298.667c17.92,-25.6 17.92,-59.733 0,-85.333"/>
  <path fill="none" stroke="currentColor" stroke-width="38.4" stroke-linecap="round" stroke-linejoin="round" d="M404.907,352c53.12,-46.72 58.027,-127.573 11.307,-180.693 -3.627,-4.053 -7.253,-7.893 -11.307,-11.307"/>
  <path fill="none" stroke="currentColor" stroke-width="38.4" stroke-linecap="round" stroke-linejoin="round" d="M436.907,405.333c82.56,-66.56 95.36,-187.52 28.587,-270.08 -8.533,-10.453 -18.133,-20.053 -28.587,-28.587"/>
</svg>
