<svg xmlns="http://www.w3.org/2000/svg" width="16" height="16" viewBox="0 0 512 512" fill="currentColor">
  <path d="M381.05,74.82c45.11,15.4,81.67,58.47,83.27,106.87,1.42,12.1-.83,27.44-16.32,26.81-28.16.33-7.13-43.49-41-77.5-12.11-14.41-30.64-23.7-49-27,.12,69.43.19,138.85.28,208.28,1.36,71.53,7.86,151.56-87.88,152.02-53.28-1.9-88.52-62.14-68.34-110.5,16.98-47.59,81.89-65.8,121.94-35.81.08-57.8.23-115.6.35-173.41.06-18.28.04-36.56.13-54.84-2.66-30.5,38.48-21.62,56.57-14.94Z"/>
  <path d="M68.15,132.62c51.18-.07,102.36.02,153.54-.02,17.91-.01,35.82.02,53.73,0,15.32-1.69,24.48,16.85,14.58,28.4-11.28,9.38-38.58,3.69-53.73,5.2-38.79.02-77.58.08-116.37.12-14.04.01-28.08.04-42.12.05-8.77-.37-18.48,1.89-25.42-4.91-11-13.74-2.34-31.33,15.79-28.85Z"/>
  <path d="M68.15,68.62c51.18-.07,102.36.02,153.54-.02,17.91-.01,35.82.02,53.73,0,15.32-1.69,24.48,16.85,14.58,28.4-11.28,9.38-38.58,3.69-53.73,5.2-38.79.02-77.58.08-116.37.12-14.04.01-28.08.04-42.12.05-8.77-.37-18.48,1.89-25.42-4.91-11-13.74-2.34-31.33,15.79-28.85Z"/>
  <path d="M70.33,196.6c25.27-.07,50.56-.04,75.83-.09,11.43,1.13,26.71-3.45,35.84,4.5,7.02,7.06,7.29,18.68-.38,25.25-9.59,6.72-21.86,3.21-32.84,4.05-19.89.01-39.77.04-59.66.06-12.2-1.21-26.63,3.69-36.77-4.9-11.7-15.98-1.4-31.45,17.97-28.87Z"/>
</svg>