<?xml version="1.0" encoding="UTF-8"?>
<svg version="1.1" xmlns="http://www.w3.org/2000/svg" width="512" height="512">
<path d="M0 0 C18.29251343 6.2440791 34.20781672 16.7643459 47.953125 30.17993164 C48.91798828 31.05198242 48.91798828 31.05198242 49.90234375 31.94165039 C69.76324411 50.32108499 82.04321989 80.25350013 83.2734375 106.87133789 C83.32323902 108.84896121 83.36237416 110.82688309 83.390625 112.80493164 C83.41294189 113.74151611 83.43525879 114.67810059 83.45825195 115.64306641 C83.43919268 121.34178929 82.78481771 124.6803292 78.953125 129.17993164 C75.13382328 132.80826827 72.07033494 133.48993622 66.953125 133.67993164 C61.83591506 133.48993622 58.77242672 132.80826827 54.953125 129.17993164 C50.27344485 123.72324799 50.14454663 118.42526509 49.578125 111.42993164 C47.40480007 90.10041029 40.29787686 72.3710377 25.953125 56.17993164 C25.08494141 55.1705957 25.08494141 55.1705957 24.19921875 54.14086914 C13.13446172 42.14409154 -2.90266503 33.51690244 -18.80126953 30.09399414 C-19.99914597 29.83416748 -19.99914597 29.83416748 -21.22122192 29.5690918 C-21.82368744 29.44066895 -22.42615295 29.31224609 -23.046875 29.17993164 C-23.04573584 29.78113941 -23.04459668 30.38234717 -23.043423 31.00177336 C-22.97619659 66.68423513 -22.92476883 102.36668595 -22.89367901 138.04919794 C-22.88992718 142.3396835 -22.88604418 146.63016893 -22.88208008 150.9206543 C-22.88129315 151.77476377 -22.88050622 152.62887324 -22.87969544 153.50886482 C-22.86666398 167.31380956 -22.84302266 181.11871659 -22.81541661 194.923639 C-22.78729938 209.10310951 -22.77068542 223.28256035 -22.76460952 237.46205759 C-22.76050614 246.20197146 -22.7475758 254.94177868 -22.7231256 263.6816597 C-22.7071903 269.68599804 -22.70249215 275.69028176 -22.70637087 281.69463968 C-22.70828038 285.15179974 -22.70548525 288.60877427 -22.68925858 292.0659008 C-22.5730085 321.1202121 -26.23855911 345.79091303 -47.32421875 367.52758789 C-65.53826335 384.73794122 -86.35934867 389.88060228 -110.640625 389.48461914 C-128.31254316 388.86301969 -145.07272147 381.08428655 -158.046875 369.17993164 C-158.80226562 368.51606445 -159.55765625 367.85219727 -160.3359375 367.16821289 C-174.60652825 353.90293867 -183.51940605 334.42979128 -184.3828125 314.95336914 C-184.57434389 303.41280953 -183.7270513 293.13571964 -180.046875 282.17993164 C-179.69625 281.12676758 -179.345625 280.07360352 -178.984375 278.98852539 C-171.93621421 260.21790274 -157.07123966 244.89193415 -139.10498047 236.24536133 C-127.51372465 231.02915243 -117.10257519 228.78644665 -104.421875 228.80493164 C-103.27267578 228.80654297 -102.12347656 228.8081543 -100.93945312 228.80981445 C-92.03360401 228.93790196 -84.4418952 230.06668886 -76.046875 233.17993164 C-75.12132812 233.49188477 -74.19578125 233.80383789 -73.2421875 234.12524414 C-68.86342566 235.70905162 -65.10759581 237.69146311 -61.2578125 240.31274414 C-60.4642334 240.85044434 -59.6706543 241.38814453 -58.85302734 241.94213867 C-58.25699707 242.35061035 -57.6609668 242.75908203 -57.046875 243.17993164 C-57.04540844 241.95887411 -57.04394188 240.73781658 -57.04243088 239.47975731 C-57.0067302 210.4954239 -56.95049096 181.5111817 -56.86895405 152.52694329 C-56.85893657 148.95961299 -56.84909244 145.39228224 -56.83935547 141.82495117 C-56.83644341 140.75966249 -56.83644341 140.75966249 -56.83347252 139.67285283 C-56.80244998 128.17296032 -56.78547117 116.67308778 -56.77368078 105.17316131 C-56.76127052 93.37348589 -56.733772 81.57391523 -56.69226193 69.77430594 C-56.66937885 63.1464946 -56.6539671 56.51879883 -56.65499115 49.89094162 C-56.65573502 43.65452919 -56.63789368 37.41844803 -56.60570717 31.18212128 C-56.59717802 28.89160039 -56.59547857 26.60104248 -56.60107231 24.31051254 C-56.60768812 21.18557197 -56.58984862 18.06169281 -56.56585693 14.93685913 C-56.57361735 14.02829049 -56.58137777 13.11972184 -56.58937335 12.18362081 C-56.51457125 6.68830199 -55.71110378 3.53707751 -52.046875 -0.82006836 C-39.32237185 -12.02974971 -14.78783072 -4.71398492 0 0 Z " fill="#000000" transform="translate(381.046875,74.820068359375)"/>
<path d="M0 0 C0.91152533 -0.00467997 1.82305066 -0.00935994 2.76219797 -0.01418173 C5.81146268 -0.02613176 8.86027798 -0.01667435 11.9095459 -0.00723267 C14.09771486 -0.01129835 16.28588178 -0.01664022 18.4740448 -0.02316284 C24.41403675 -0.03684247 30.35387242 -0.03153503 36.29386711 -0.02202559 C42.50906675 -0.0144324 48.72425297 -0.02147365 54.93945312 -0.02618408 C66.04556347 -0.03199229 77.15161233 -0.02266698 88.25771052 -0.00740607 C98.32316873 0.0059968 108.38852315 0.00366861 118.45397949 -0.01016235 C130.14868571 -0.0262246 141.84333136 -0.03218885 153.53804731 -0.02332556 C159.72646547 -0.01864752 165.91481214 -0.01802788 172.10322571 -0.02793503 C177.92105543 -0.03659824 183.73868904 -0.03059437 189.55649757 -0.01325226 C191.69223009 -0.009284 193.8279791 -0.01042724 195.96370506 -0.01704025 C198.87796338 -0.02523223 201.79159238 -0.01496224 204.70581055 0 C205.9749781 -0.01003825 205.9749781 -0.01003825 207.2697854 -0.02027929 C212.20578936 0.02890979 215.56630366 0.67004443 219.85290527 3.38095093 C223.73739325 7.48124379 225.59361135 11.09052128 226.22790527 16.69345093 C225.76125765 21.28215253 224.525051 24.62196917 221.85290527 28.38095093 C216.00811088 33.03293014 211.38588393 33.52880222 204.14250183 33.52139282 C203.24170688 33.52436394 202.34091193 33.52733507 201.41282016 33.53039622 C198.38201565 33.53909624 195.35125059 33.54059257 192.32043457 33.54208374 C190.1524141 33.54671098 187.98439444 33.55173551 185.81637573 33.55712891 C179.91757862 33.57026364 174.01879289 33.57669991 168.11998343 33.58113956 C164.43654778 33.58406843 160.75311525 33.58817288 157.06968117 33.59264374 C145.55054446 33.60632122 134.03141489 33.61598677 122.51227063 33.61984563 C109.20483258 33.62432777 95.89754194 33.64188186 82.59013242 33.67084622 C72.31065557 33.69244527 62.03120763 33.70254895 51.75170833 33.70388675 C45.60906171 33.70493601 39.46651155 33.71086963 33.32388878 33.72870636 C27.54633785 33.74515636 21.7689562 33.74735743 15.99139023 33.73856735 C13.87016535 33.73779534 11.74893149 33.74216117 9.62772942 33.7520256 C6.73303674 33.76469822 3.83894785 33.75889367 0.94425964 33.7484436 C0.10388348 33.75650001 -0.73649269 33.76455641 -1.6023348 33.77285695 C-7.20457961 33.72552183 -11.53402339 32.82023129 -15.79162598 28.84579468 C-20.53169899 22.64723766 -21.02180197 18.15391758 -20.14709473 10.38095093 C-18.49866328 6.30250417 -16.33005695 4.1112117 -12.61380768 1.81711388 C-8.23903064 0.00476518 -4.68282782 -0.03703797 0 0 Z " fill="#000000" transform="translate(68.1470947265625,132.61904907226563)"/>
<path d="M0 0 C0.91152533 -0.00467997 1.82305066 -0.00935994 2.76219797 -0.01418173 C5.81146268 -0.02613176 8.86027798 -0.01667435 11.9095459 -0.00723267 C14.09771486 -0.01129835 16.28588178 -0.01664022 18.4740448 -0.02316284 C24.41403675 -0.03684247 30.35387242 -0.03153503 36.29386711 -0.02202559 C42.50906675 -0.0144324 48.72425297 -0.02147365 54.93945312 -0.02618408 C66.04556347 -0.03199229 77.15161233 -0.02266698 88.25771052 -0.00740607 C98.32316873 0.0059968 108.38852315 0.00366861 118.45397949 -0.01016235 C130.14868571 -0.0262246 141.84333136 -0.03218885 153.53804731 -0.02332556 C159.72646547 -0.01864752 165.91481214 -0.01802788 172.10322571 -0.02793503 C177.92105543 -0.03659824 183.73868904 -0.03059437 189.55649757 -0.01325226 C191.69223009 -0.009284 193.8279791 -0.01042724 195.96370506 -0.01704025 C198.87796338 -0.02523223 201.79159238 -0.01496224 204.70581055 0 C205.9749781 -0.01003825 205.9749781 -0.01003825 207.2697854 -0.02027929 C212.20578936 0.02890979 215.56630366 0.67004443 219.85290527 3.38095093 C223.73739325 7.48124379 225.59361135 11.09052128 226.22790527 16.69345093 C225.76125765 21.28215253 224.525051 24.62196917 221.85290527 28.38095093 C216.00811088 33.03293014 211.38588393 33.52880222 204.14250183 33.52139282 C203.24170688 33.52436394 202.34091193 33.52733507 201.41282016 33.53039622 C198.38201565 33.53909624 195.35125059 33.54059257 192.32043457 33.54208374 C190.1524141 33.54671098 187.98439444 33.55173551 185.81637573 33.55712891 C179.91757862 33.57026364 174.01879289 33.57669991 168.11998343 33.58113956 C164.43654778 33.58406843 160.75311525 33.58817288 157.06968117 33.59264374 C145.55054446 33.60632122 134.03141489 33.61598677 122.51227063 33.61984563 C109.20483258 33.62432777 95.89754194 33.64188186 82.59013242 33.67084622 C72.31065557 33.69244527 62.03120763 33.70254895 51.75170833 33.70388675 C45.60906171 33.70493601 39.46651155 33.71086963 33.32388878 33.72870636 C27.54633785 33.74515636 21.7689562 33.74735743 15.99139023 33.73856735 C13.87016535 33.73779534 11.74893149 33.74216117 9.62772942 33.7520256 C6.73303674 33.76469822 3.83894785 33.75889367 0.94425964 33.7484436 C0.10388348 33.75650001 -0.73649269 33.76455641 -1.6023348 33.77285695 C-7.20457961 33.72552183 -11.53402339 32.82023129 -15.79162598 28.84579468 C-20.53169899 22.64723766 -21.02180197 18.15391758 -20.14709473 10.38095093 C-18.49866328 6.30250417 -16.33005695 4.1112117 -12.61380768 1.81711388 C-8.23903064 0.00476518 -4.68282782 -0.03703797 0 0 Z " fill="#000000" transform="translate(68.1470947265625,68.61904907226563)"/>
<path d="M0 0 C1.13240616 -0.00686325 2.26481232 -0.0137265 3.43153381 -0.02079773 C7.1686767 -0.03907497 10.90540021 -0.03522707 14.64257812 -0.02954102 C17.24279924 -0.03410198 19.84301915 -0.0394073 22.4432373 -0.04542542 C27.89043659 -0.0543581 33.3374752 -0.05216527 38.78466797 -0.04199219 C45.07300676 -0.03050741 51.36091923 -0.04459638 57.64920187 -0.07138866 C63.71048844 -0.09624253 69.7715561 -0.09871968 75.832901 -0.0922718 C78.40691334 -0.09211839 80.98093382 -0.09817939 83.55491638 -0.11056328 C87.15281942 -0.12543592 90.74978268 -0.11482258 94.34765625 -0.09765625 C95.94221397 -0.1121582 95.94221397 -0.1121582 97.56898499 -0.12695312 C103.6004491 -0.06667645 107.08140745 0.38447678 111.67382812 4.40405273 C116.10356532 9.43240307 116.97399401 12.28570564 116.88867188 18.86499023 C116.48517629 23.63357446 114.71428709 26.41835477 111.29882812 29.65405273 C107.19037486 32.39302158 103.72569441 33.65250379 98.78504944 33.66474915 C97.82763351 33.67183395 96.87021759 33.67891876 95.88378906 33.68621826 C94.84520752 33.68374084 93.80662598 33.68126343 92.73657227 33.67871094 C91.63357285 33.68382187 90.53057343 33.6889328 89.39414978 33.69419861 C85.74903941 33.70809566 82.10411808 33.70713777 78.45898438 33.70483398 C75.92459543 33.70872071 73.39020715 33.71305533 70.8558197 33.71781921 C65.54391093 33.72528158 60.23207151 33.72512827 54.92016602 33.71972656 C48.78812963 33.71368656 42.65632268 33.72600085 36.52432543 33.74729663 C30.61525424 33.76706038 24.70625394 33.77008361 18.79714775 33.76656151 C16.28733214 33.767075 13.77751288 33.77231795 11.26771736 33.78237343 C7.75845784 33.79470806 4.24972952 33.78796355 0.74047852 33.77636719 C-0.2960788 33.78401093 -1.33263611 33.79165466 -2.40060425 33.79953003 C-8.55046339 33.75460665 -13.26494307 33.26168437 -17.97070312 28.86889648 C-22.71077614 22.67033947 -23.20087912 18.17701939 -22.32617188 10.40405273 C-20.70094239 6.38301082 -18.53148909 4.18966182 -14.92907715 1.84165955 C-9.90403296 -0.16339948 -5.36324418 -0.02271172 0 0 Z " fill="#000000" transform="translate(70.326171875,196.595947265625)"/>
</svg>
