<svg xmlns="http://www.w3.org/2000/svg" viewBox="1231.424 42.110 355.268 464.826">
  <g fill="#d4af37">
    <path d="M1516.72,60.12c-4.4,0.4-9.8,1-12,1.2c-6.4,0.7-22.3,3.7-25,4.7c-1.4,0.5-3.2,0.7-4,0.4c-0.9-0.4-2.4,0.1-3.4,1   c-1.1,1-2.2,1.3-2.5,0.8c-0.4-0.6-1.8-0.7-3.9-0.1c-1.7,0.4-10.6,2.7-19.6,4.9c-9,2.2-19.6,5.2-23.5,6.6c-3.9,1.4-8.9,2.9-11.1,3.3   c-2.2,0.4-5.4,1.5-7.2,2.4c-5.5,2.9-8.8,2.2-15.1-3.2c-7.2-6.1-14-10.4-15.7-9.8c-1.4,0.6-11.6-3.9-12.6-5.5   c-0.4-0.6-1.9,0.7-3.5,3.2c-2.8,4.2-5.3,11.1-9.6,27c-1.1,4.1-2.4,8-2.9,8.6c-0.5,0.7-3.8,2.2-7.2,3.5c-3.4,1.2-7.1,2.8-8.2,3.6   c-1.1,0.7-2.9,1.3-4,1.3c-1.2,0-3.6,1.1-5.5,2.5c-1.8,1.3-4.9,3-6.9,3.6s-5.6,2.2-8.1,3.5s-7.1,3.4-10.2,4.8   c-11,4.7-11.3,12.2-0.9,23.8c1.4,1.5,2.2,3.1,1.8,3.4c-0.3,0.4,0.5,2.6,1.8,4.9c1.4,2.3,2.5,4.7,2.5,5.4c0,1.7,6.9,10.1,8.3,10.1   c0.6,0,2.3,1.1,3.7,2.5l2.7,2.6l4.9-2.3c2.7-1.2,5.2-2.4,5.7-2.6c1.3-0.7,0.8,3.4-0.9,6.7c-1.2,2.4-1.3,3.6-0.5,4.4   s1.1,0.7,1.1-0.6c0-0.9,0.5-1.7,1-1.7c2.5,0-0.1,12.7-3,14.5c-1.2,0.8-1.3-0.5-0.1-2.4c1-1.5,0.4-4.1-0.9-4.1   c-0.4,0-1.2,2.1-1.8,4.7c-2,9.5-5.5,21.8-6.4,23c-0.6,0.7-0.5,1.4,0.2,1.8c1.5,0.9,2.8-0.4,3.3-3c0.1-1.1,0.5-2.5,0.9-3   c0.3-0.6,0.9-2.9,1.3-5.2c0.4-2.4,1.1-4.6,1.7-4.9c0.6-0.4,0.8,0.4,0.4,2.2c-1.5,7.6-2,11-1.8,11.8c0.2,0.4-0.4,3-1.3,5.5   c-0.8,2.6-1.8,7.2-2.1,10.2s-0.9,5.8-1.5,6.3c-0.5,0.6-0.9,2.2-0.9,3.6c0,1.5-0.3,3-0.7,3.4c-0.5,0.4-0.8,1.5-0.8,2.4   c-0.1,1-0.6,3.5-1.2,5.7c-0.7,2.2-2.2,8.3-3.4,13.5c-2.5,11.4-3.9,15-5.8,15c-1,0-1.2-0.9-0.6-3.8c0.4-2,1.1-4.2,1.7-4.9   c0.5-0.7,0.7-1.7,0.3-2.3s-0.1-1.7,0.5-2.5c0.7-0.9,0.9-2.6,0.5-4.5c-0.5-2.4-0.3-3,1-3c1.5,0,1.5-0.3,0.5-1.5   c-2.5-3.1-4-0.8-4.3,6.5c0,1.9-0.7,4-1.4,4.5c-0.8,0.6-1.4,3.3-1.5,6.8l-0.2,5.8l-4.4,1.9c-2.5,1.1-5.2,2-6.1,2   c-0.9,0-2.9,0.7-4.6,1.6c-1.6,0.8-3.9,1.3-5,1s-2.5-0.2-3.1,0.2c-1.6,1.1-2.4,4.1-1.4,4.7c0.6,0.4,1,1.4,1,2.3   c0,2.5,4.5,10.9,9.1,17.1l4,5.4l-1.1,7.1c-0.6,3.9-1.5,8.3-2,9.7c-0.4,1.4-0.5,3.2-0.1,3.8c0.5,0.7,1.5-1.1,2.6-4.6   c1-3.2,2-6.2,2.3-6.7c0.8-1.4,3.2,2.5,3.2,5.1c0,1.3,0.5,2.3,1,2.3c0.6,0,1,0.9,1,2c0,1.2-0.5,1.7-1.4,1.4c-1.3-0.5-2.6,2-3.1,5.6   c0,0.8-0.4,2.2-0.7,3c-0.4,0.8-0.6,2.4-0.6,3.5c0.4,6.3-0.3,11.6-1.3,10.9c-0.8-0.5-1,0-0.6,1.7c0.4,1.4-0.1,4.5-0.9,6.9   c-1.5,4.2-2.5,9.4-4,21.2c-0.5,3.3-1.1,4.8-2.2,4.8c-1.2,0-1.4-0.9-0.9-4.4c0.5-3.1,0.3-4.6-0.6-5c-0.8-0.3-0.9-0.7-0.1-1.3   c1.7-1.3,5.2-21.5,4.1-23.5c-0.8-1.2-0.6-2.3,0.8-4.4c1-1.5,1.9-4.4,2.1-6.4c0.1-1.9,0.5-5,0.9-6.8c0.8-4.2-1.1-4.2-2,0   c-0.4,1.8-1.1,3.9-1.6,4.8c-0.4,0.8-1.2,4.4-1.8,8c-0.5,3.6-1.4,8.5-2,11c-0.6,2.5-1,6.4-1.1,8.7c0,2.3-0.9,5.9-2.1,7.9   c-1.9,3.4-2.5,7.6-2.8,19.1c-0.1,2.8-0.8,5-2.1,6.3c-1.1,1.1-1.5,2.2-1,2.5c1.4,0.8,1.3,8.2-0.1,9.1c-0.6,0.4-0.9,2-0.6,3.9   c0.3,1.8,0.1,3.7-0.5,4.3c-1.2,1.2-2.9,8.9-3.3,15.2c-0.1,2.5-0.6,6.4-1,8.7c-0.7,3.8-0.5,4.5,2.3,7.2c1.8,1.8,3.2,2.6,3.4,1.9   c0.6-1.6,2.8-0.1,2.8,1.8c0,2.2,6.2,8.5,7.7,8c1.8-0.7,9.5,3.6,10.1,5.6c0.5,2.1,1.8,2.3,2.5,0.5c0.4-0.7,0.6-0.6,0.6,0.4   c0.1,2.7,2.7,4.2,4.9,3c1.5-0.8,2.4-0.6,4.2,1.1c2.2,2.1,2.3,2.1,3.6,0.3c0.8-1,1.4-2.3,1.4-2.7c0-0.5,0.8-2,1.7-3.4   c0.9-1.4,1.7-3.8,1.9-5.2c1.1-13,1.6-17.4,2.4-21.7c0.5-2.8,1.6-8.4,2.4-12.5c0.8-4.1,2-10.7,2.6-14.5c0.7-3.9,1.6-8,2-9.2   c0.5-1.2,1.4-7.7,2-14.5c0.6-6.7,1.6-12.5,2.1-12.8c0.5-0.4,1.1-2.7,1.4-5.4c0.2-2.6,0.7-5.1,1-5.6c1.1-1.8,4.8-20,5.9-29.5   c0.3-2.3,1.2-5.7,2.1-7.8c0.8-2,1.5-4.8,1.5-6.2c0-5.2,2.6-8.2,10.4-11.8c4.1-2,9.2-4.1,11.5-4.7c2.2-0.6,4.3-1.5,4.6-1.9   c0.3-0.5,3.1-1.7,6.3-2.7c3.1-0.9,6.4-2.2,7.2-2.9c0.8-0.6,6-2.6,11.5-4.4c5.5-1.7,10.9-3.6,12-4.1c3.8-1.7,17.2-6,18.9-6   c2.9,0,19.9-5.9,25.7-9c3.2-1.7,8-3.2,11.2-3.6c3.7-0.4,5.7-1.1,5.7-2c0-3.8-3.8-11.5-8.1-16.5c-2.7-3.1-4.9-6.1-4.9-6.6   c0-0.6-0.9-1.8-2-2.8s-1.7-2.1-1.5-2.5c0.3-0.4-0.2-1-1-1.4c-0.8-0.3-1.5-1.1-1.5-1.9c0-0.7-1.3-2.8-2.9-4.6   c-2.2-2.5-3.5-3.1-5-2.6c-2.4,0.7-2.8,2.5-0.6,2.5c3.3,0,1.2,1.8-2.7,2.4c-2.4,0.4-5.2,1.3-6.3,2c-1.2,0.8-3.8,1.2-5.9,1   c-2.3-0.2-4.7,0.3-6,1.1c-3.1,2.2-5.5,1.8-6.2-1c-0.3-1.4-0.9-2.5-1.3-2.5c-1.7,0.1-14.9,3.8-16.7,4.8c-1.2,0.6-2.4,0.9-2.7,0.6   c-0.3-0.3-1.6,0.1-2.9,1c-1.2,0.9-3.4,1.6-4.8,1.6s-5.6,1.2-9.5,2.5c-3.8,1.4-8.7,2.5-10.8,2.5c-3.8,0-3.9,0-3.2-3.3   c0.3-1.7,1-4.3,1.5-5.7c0.4-1.4,1.6-5.9,2.5-10c2.4-10.7,3.7-15.4,4.7-16.4c0.4-0.6,0.8-3,0.8-5.4c0-4.4,1.3-9.3,5.5-21.2   c1.3-3.6,3.8-11.5,5.5-17.5c1.7-6.1,3.9-13.7,5-17c1-3.3,2.1-7.4,2.5-9.2c0.3-1.7,1.5-4.8,2.6-6.9c1-2.1,1.9-4.7,1.9-5.7   c0-1.5,0.5-1.8,2.4-1.3c1.6,0.4,4.5-0.4,8.6-2.5c3.4-1.7,8.4-3.4,11-3.8c2.7-0.4,6-1.5,7.5-2.5c1.4-0.9,3-1.4,3.6-1   c0.6,0.3,2.3-0.2,3.7-1.3c1.5-1,5.4-2.5,8.7-3.3c3.3-0.7,8.3-2.1,11-3.1c2.8-0.9,6.7-2,8.7-2.3c2.1-0.4,4-1.1,4.3-1.5   c0.2-0.5-1.1-0.5-3-0.1s-3.5,0.4-3.5,0c0-0.5,1.8-1.1,4-1.5c4.7-0.8,5.6-3.5,1.2-3.5c-1.5,0-3.2,0.4-3.7,0.9   c-1.1,0.9-10.5,2.5-10.5,1.7c0-0.9,11.3-5.6,13.6-5.6c1.2,0,2.5-0.4,2.8-0.9c0.3-0.4,2.5-1.1,4.8-1.5c2.3-0.4,4.6-1.2,5-1.9   c0.4-0.6,2.3-1,4.3-0.8c2.4,0.2,4.3-0.3,5.6-1.5c1.8-1.6,2-1.6,3.7-0.1c2.4,2.2,2.8,2.1,5.4-0.3c1.2-1,2.5-1.7,2.9-1.4   c0.4,0.2,1,0,1.3-0.4c0.7-1.2,15.6-1.4,15.6-0.3c0,1.1-2.5,2.1-5,2.1c-1.1,0-3.5,0.8-5.5,1.7c-2.6,1.2-3.8,1.4-4.6,0.6   c-0.7-0.7-1.8-0.8-2.8-0.3c-5.9,2.9-13.2,5-15.4,4.5c-2.4-0.6-2.6-0.4-2.4,2.2c0.3,3.1,0.2,3.1,7,1.9c2.7-0.5,5.1-1.5,5.4-2.3   c0.4-0.9,0.9-1,1.7-0.3c0.9,0.6,3.3,0.4,7.8-0.9c4.7-1.4,8.4-1.7,13.6-1.3c5.5,0.3,7.3,0.2,7.7-0.9c0.4-1,2.3-1.4,6.8-1.4   c3.4,0.1,6.8-0.3,7.4-0.8c0.7-0.5,1.9-0.7,2.6-0.4c0.8,0.3,2.9,0.2,4.8-0.2c2.4-0.5,5.1-0.2,9.2,1.3c5.8,2,5.9,2,7,0.1   c1.3-2.3,1.7-12.4,0.5-13.1c-0.4-0.3-0.8-1.3-0.8-2.3s-0.9-2.6-2-3.6s-2-2.8-2-4c0-1.1-1.6-3.8-3.5-5.9s-3.3-4.2-3-4.6   c0.3-0.4-1.5-3-4-5.6c-2.5-2.7-4.8-5.9-5.1-7.2c-0.4-1.2-1.1-2.2-1.8-2.2c-0.6,0-1.7-0.9-2.4-2c-0.7-1.1-1.8-1.9-2.5-1.8   C1525.32,59.32,1521.12,59.72,1516.72,60.12z M1504.72,67.02c0.4,0.7,1.2,0.7,2.5,0c1.1-0.6,2.1-0.6,2.5-0.1c0.8,1.5,0,1.7-15,4.5   c-7.7,1.4-15.9,3-18.3,3.6c-2.3,0.5-5.3,1-6.7,1c-1.3,0-2.6,0.4-3,0.9c-0.5,0.8-5,2-13.5,3.5c-4.1,0.7-12.2,2.8-16.5,4.1   c-7.9,2.6-19.8,5.6-20.3,5.1c-1.3-1.4,2.5-3.6,7.1-4.2c2.7-0.4,5.8-1.5,6.7-2.4s3.2-1.7,4.9-1.8c3.2-0.1,11.7-2.5,15.3-4.3   c1-0.5,3.9-0.9,6.5-0.9c2.7,0,5.7-0.7,6.7-1.5c1-0.8,2.3-1.2,2.8-0.9s1.5,0.1,2.2-0.5s2.9-1,4.9-0.9s4.3-0.4,5.1-1.1   s3.8-1.2,6.8-1.1c2.9,0.1,5.6,0.1,6.1,0c0.4-0.2,1.1-0.3,1.6-0.4c0.5,0,1.2-0.4,1.6-0.8c0.4-0.4,2-0.4,3.6-0.1   c2.1,0.4,3,0.1,3.5-1.1C1502.52,65.82,1503.82,65.52,1504.72,67.02z M1516.72,67.02c0.3,0.5,0.1,1-0.4,1c-0.6,0-1.1-0.5-1.1-1   c0-0.6,0.2-1,0.4-1C1515.92,66.02,1516.42,66.42,1516.72,67.02z M1467.72,82.02c-0.3,0.5-1.5,1-2.6,1s-1.7-0.5-1.4-1   c0.3-0.6,1.5-1,2.6-1C1467.42,81.02,1468.02,81.42,1467.72,82.02z M1491.92,85.62c-0.3,0.3-1.2,0.4-1.9,0.1   c-0.8-0.3-0.5-0.6,0.6-0.6C1491.72,85.02,1492.32,85.32,1491.92,85.62z M1414.92,89.72c0.2,0.6-0.6,1.4-1.8,1.8s-3.8,1.4-5.8,2.3   c-3.3,1.4-8.1,2.2-8.1,1.4c0-0.9,3-3.2,6.6-5.1C1409.92,87.92,1414.32,87.72,1414.92,89.72z M1470.22,88.82c0,1.6-2.5,3.2-4.9,3.1   l-2.6-0.1l2.8-1c1.5-0.5,2.7-1.4,2.7-1.9s0.5-0.9,1-0.9C1469.82,88.02,1470.22,88.42,1470.22,88.82z M1454.82,93.72   c-0.3,0.4-1.2,0.8-1.9,0.9c-0.7,0.2-2.2,0.6-3.4,1c-2.4,0.7-3.3-1-1-1.9C1450.42,92.92,1455.62,92.92,1454.82,93.72z    M1534.72,103.02c1.9,0.8,1.9,0.9-0.2,0.9c-1.2,0.1-2.5-0.4-2.8-0.9C1531.02,101.82,1531.92,101.82,1534.72,103.02z    M1489.22,114.02c0,0.5-0.4,1-1,1c-0.5,0-1-0.5-1-1c0-0.6,0.5-1,1-1C1488.82,113.02,1489.22,113.42,1489.22,114.02z    M1438.22,122.52c-2.8,1.6-8,2-8,0.6c0-1,3.1-1.7,8-1.9l2.5-0.1L1438.22,122.52z M1427.22,124.92c0,0.5-0.8,1.1-1.7,1.4   c-1,0.2-2.6,0.8-3.5,1.2c-1,0.4-1.8,0.3-1.8-0.3s1.2-1.5,2.8-2C1426.52,123.92,1427.22,123.82,1427.22,124.92z M1403.72,131.82   c-1.3,1.1-6.5,3.3-6.5,2.7c0-0.2,1.2-1.1,2.8-1.9C1403.02,130.92,1405.22,130.52,1403.72,131.82z M1330.62,201.82   c-0.4,0.9-0.8,2-0.8,2.4c-0.1,0.3-0.4,1-0.8,1.4c-0.5,0.4-0.8,1.8-0.8,3.1c0,1.2-0.4,2.3-1,2.3c-1.4,0-1.2-2.3,0.5-5.6   c0.8-1.6,1.5-3.8,1.5-5c0-1.1,0.3-2.4,0.8-2.8C1331.02,196.52,1331.52,199.82,1330.62,201.82z M1326.32,218.32   c-0.6,1.5-1.5,2.7-2.1,2.7c-1.4,0-1.3-0.6,0.7-4.3C1326.72,213.12,1327.82,214.32,1326.32,218.32z M1321.62,236.72   c-0.9,3.7-2.4,6.6-3.1,5.9c-0.8-0.8,1.8-8.6,2.9-8.6C1321.92,234.02,1321.92,235.22,1321.62,236.72z M1319.22,245.92   c0,1.1-0.4,2.2-0.9,2.5c-1.1,0.7-2-1.4-1.3-3.2C1317.72,243.32,1319.22,243.82,1319.22,245.92z M1318.22,251.52   c0,0.8-0.7,1.5-1.5,1.5c-1.6,0-2-1.2-0.8-2.3C1317.02,249.52,1318.22,249.92,1318.22,251.52z M1401.52,256.12   c-0.6,0.6-1.9,0.9-2.9,0.6c-1.7-0.3-1.6-0.5,0.6-1.4C1402.02,254.12,1403.12,254.52,1401.52,256.12z M1316.22,257.92   c0,2.2-1.6,3.6-2.4,2.2c-0.8-1.2,0.3-4.1,1.5-4.1C1315.82,256.02,1316.22,256.92,1316.22,257.92z M1393.22,259.92   c0,0.6-0.4,1.3-1,1.6c-0.5,0.3-1-0.1-1-0.9c0-0.9,0.5-1.6,1-1.6C1392.82,259.02,1393.22,259.42,1393.22,259.92z M1294.32,351.72   c-1,1.7-1,1.6-1.1-0.3c0-2.3,1.3-4.1,1.8-2.5C1295.22,349.52,1294.92,350.72,1294.32,351.72z M1286.92,397.22   c-0.3,0.8-0.6,0.5-0.6-0.6c-0.1-1.1,0.2-1.7,0.5-1.3C1287.12,395.62,1287.22,396.52,1286.92,397.22z M1280.12,410.32   c-2.2,13-4.4,21.6-5.2,20.8c-0.5-0.5-0.4-2.4,0.2-4.6c0.8-3,0.7-4.2-0.5-6.1c-1.5-2.2-1.4-2.6,0.5-5.7c1.2-1.9,2.1-3.9,2.1-4.5   s0.5-2.3,1.1-3.9C1279.82,402.42,1281.12,405.02,1280.12,410.32z" />
    <path d="M1460.92,116.62c-0.3,0.3-0.1,1.7,0.5,3l1.1,2.4l1.2-2.3c0.6-1.2,1-2.5,0.8-3   C1464.02,115.92,1461.82,115.82,1460.92,116.62z" />
    <path d="M1323.22,190.02c0,0.5,0.5,1,1,1c0.6,0,1-0.5,1-1c0-0.6-0.4-1-1-1C1323.72,189.02,1323.22,189.42,1323.22,190.02z" />
    <path d="M1310.92,236.72c-1.1,1-0.8,4.3,0.3,4.3c0.6,0,1-1.1,1-2.5C1312.22,235.92,1312.02,235.62,1310.92,236.72z" />
    <path d="M1309.22,244.62c0,0.8,0.5,1.2,1,0.9c0.6-0.3,1-1,1-1.6c0-0.5-0.4-0.9-1-0.9C1309.72,243.02,1309.22,243.72,1309.22,244.62z" />
    <path d="M1308.22,248.02c0,0.5,0.5,1,1,1c0.6,0,1-0.5,1-1c0-0.6-0.4-1-1-1C1308.72,247.02,1308.22,247.42,1308.22,248.02z" />
    <path d="M1420.22,248.02c0,0.5,0.6,1,1.4,1s1.8-0.5,2.1-1c0.3-0.6-0.3-1-1.4-1C1421.12,247.02,1420.22,247.42,1420.22,248.02z" />
    <path d="M1412.42,249.92c-1.1,0.7-1.1,0.9,0.1,1.4c1.6,0.6,2.7,0,2.7-1.5C1415.22,248.82,1414.12,248.82,1412.42,249.92z" />
    <path d="M1306.72,253.02c0.3,0.5,0.8,1,1.1,1c0.2,0,0.4-0.5,0.4-1c0-0.6-0.5-1-1.1-1C1306.62,252.02,1306.42,252.42,1306.72,253.02z" />
  </g>
</svg>
